# Blender 3.3.1
# www.blender.org
mtllib Reticle.mtl
o Cube
v 1.000000 1.000000 0.046850
v 1.000000 -1.000000 0.046850
v -1.000000 1.000000 0.046850
v -1.000000 -1.000000 0.046850
v 1.000000 1.000000 -0.046850
v 1.000000 -1.000000 -0.046850
v -1.000000 1.000000 -0.046850
v -1.000000 -1.000000 -0.046850
v 1.000000 0.000000 0.046850
v -1.000000 0.000000 -0.046850
v -1.000000 0.000000 0.046850
v 1.000000 0.000000 -0.046850
v 0.000000 -1.000000 -0.046850
v 0.000000 1.000000 0.046850
v 0.000000 1.000000 -0.046850
v 0.000000 -1.000000 0.046850
v -0.875000 1.000000 0.046850
v -0.875000 -1.000000 -0.046850
v -0.500000 -1.000000 -0.046850
v -0.500000 1.000000 0.046850
v -0.500000 0.000000 0.046850
v -0.500000 1.000000 -0.046850
v -0.500000 -1.000000 0.046850
v -0.500000 0.000000 -0.046850
v 0.500000 1.000000 -0.046850
v 0.500000 -1.000000 0.046850
v 0.500000 0.000000 -0.046850
v 0.500000 -1.000000 -0.046850
v 0.500000 1.000000 0.046850
v 0.500000 0.000000 0.046850
v -1.000000 0.500000 -0.046850
v 1.000000 0.500000 0.046850
v -1.000000 0.500000 0.046850
v 1.000000 0.500000 -0.046850
v 0.000000 0.500000 0.046850
v 0.000000 0.500000 -0.046850
v -0.500000 0.500000 -0.046850
v -0.500000 0.500000 0.046850
v 0.500000 0.500000 0.046850
v 0.500000 0.500000 -0.046850
v 1.000000 -0.500000 0.046850
v -1.000000 -0.500000 0.046850
v 1.000000 -0.500000 -0.046850
v -1.000000 -0.500000 -0.046850
v 0.000000 -0.500000 -0.046850
v 0.000000 -0.500000 0.046850
v -0.500000 -0.500000 -0.046850
v -0.500000 -0.500000 0.046850
v 0.500000 -0.500000 0.046850
v 0.500000 -0.500000 -0.046850
v 1.000000 0.250000 0.046850
v -1.000000 0.250000 0.046850
v 1.000000 0.250000 -0.046850
v -0.500000 0.250000 -0.046850
v -0.500000 0.250000 0.046850
v 0.500000 0.250000 0.046850
v 0.500000 0.250000 -0.046850
v -1.000000 0.250000 -0.046850
v -0.750000 -1.000000 -0.046850
v -0.750000 1.000000 0.046850
v -0.750000 1.000000 -0.046850
v -0.750000 -1.000000 0.046850
v -0.250000 1.000000 -0.046850
v -0.250000 -1.000000 0.046850
v -0.250000 -1.000000 -0.046850
v -0.250000 1.000000 0.046850
v -0.250000 0.500000 0.046850
v -0.250000 0.500000 -0.046850
v -0.250000 -0.500000 0.046850
v -0.250000 -0.500000 -0.046850
v 0.250000 -1.000000 -0.046850
v 0.250000 1.000000 0.046850
v 0.250000 1.000000 -0.046850
v 0.250000 -1.000000 0.046850
v 0.250000 0.500000 -0.046850
v 0.250000 0.500000 0.046850
v 0.250000 -0.500000 -0.046850
v 0.250000 -0.500000 0.046850
v 0.750000 1.000000 -0.046850
v 0.750000 -1.000000 0.046850
v 0.750000 -1.000000 -0.046850
v 0.750000 1.000000 0.046850
v -1.000000 -0.250000 -0.046850
v 1.000000 -0.250000 0.046850
v -1.000000 -0.250000 0.046850
v 1.000000 -0.250000 -0.046850
v -0.500000 -0.250000 -0.046850
v -0.500000 -0.250000 0.046850
v 0.500000 -0.250000 0.046850
v 0.500000 -0.250000 -0.046850
v 1.000000 -0.750000 0.046850
v -1.000000 -0.750000 0.046850
v 1.000000 -0.750000 -0.046850
v -1.000000 -0.750000 -0.046850
v -1.000000 0.750000 -0.046850
v 1.000000 0.750000 0.046850
v -1.000000 0.750000 0.046850
v 1.000000 0.750000 -0.046850
v -0.875000 0.000000 0.046850
v -0.875000 0.500000 0.046850
v -0.875000 -0.500000 0.046850
v -0.875000 0.250000 0.046850
v -0.875000 1.000000 -0.046850
v -0.875000 -1.000000 0.046850
v -0.875000 0.000000 -0.046850
v -0.875000 0.500000 -0.046850
v -0.875000 -0.500000 -0.046850
v -0.875000 0.250000 -0.046850
v -0.875000 -0.250000 -0.046850
v -0.875000 -0.250000 0.046850
v -0.875000 -0.750000 -0.046850
v -0.875000 -0.750000 0.046850
v -0.875000 0.750000 -0.046850
v -0.875000 0.750000 0.046850
v -1.000000 0.883917 -0.046850
v -0.875000 0.883917 -0.046850
v -0.875000 0.883917 0.046850
v 1.000000 0.883917 0.046850
v -1.000000 0.883917 0.046850
v 1.000000 0.883917 -0.046850
v 0.000000 0.883917 0.046850
v 0.000000 0.883917 -0.046850
v -0.500000 0.883917 -0.046850
v -0.500000 0.883917 0.046850
v 0.500000 0.883917 0.046850
v 0.500000 0.883917 -0.046850
v -0.750000 0.883917 -0.046850
v -0.750000 0.883917 0.046850
v -0.250000 0.883917 0.046850
v -0.250000 0.883917 -0.046850
v 0.250000 0.883917 -0.046850
v 0.250000 0.883917 0.046850
v 0.750000 0.883917 0.046850
v 0.750000 0.883917 -0.046850
v 0.875000 1.000000 -0.046850
v 0.875000 -1.000000 0.046850
v 0.875000 0.000000 -0.046850
v 0.875000 0.500000 -0.046850
v 0.875000 -0.500000 -0.046850
v 0.875000 0.250000 -0.046850
v 0.875000 -1.000000 -0.046850
v 0.875000 1.000000 0.046850
v 0.875000 0.000000 0.046850
v 0.875000 0.500000 0.046850
v 0.875000 -0.500000 0.046850
v 0.875000 0.250000 0.046850
v 0.875000 -0.250000 0.046850
v 0.875000 -0.250000 -0.046850
v 0.875000 -0.750000 0.046850
v 0.875000 -0.750000 -0.046850
v 0.875000 0.750000 0.046850
v 0.875000 0.750000 -0.046850
v 0.875000 0.883917 0.046850
v 0.875000 0.883917 -0.046850
v 1.000000 -0.875000 0.046850
v -1.000000 -0.875000 0.046850
v 1.000000 -0.875000 -0.046850
v 0.000000 -0.875000 -0.046850
v 0.000000 -0.875000 0.046850
v -0.500000 -0.875000 -0.046850
v -0.500000 -0.875000 0.046850
v 0.500000 -0.875000 0.046850
v 0.500000 -0.875000 -0.046850
v -0.875000 -0.875000 -0.046850
v -0.750000 -0.875000 0.046850
v -0.750000 -0.875000 -0.046850
v -0.250000 -0.875000 -0.046850
v -0.250000 -0.875000 0.046850
v -0.875000 -0.875000 0.046850
v 0.250000 -0.875000 0.046850
v 0.250000 -0.875000 -0.046850
v 0.750000 -0.875000 -0.046850
v 0.750000 -0.875000 0.046850
v -1.000000 -0.875000 -0.046850
v 0.875000 -0.875000 -0.046850
v 0.875000 -0.875000 0.046850
v 0.000000 -0.375000 0.046850
v -0.500000 -0.375000 0.046850
v 0.500000 -0.375000 0.046850
v -0.250000 -0.375000 0.046850
v 0.250000 -0.375000 0.046850
v -0.375000 0.000000 0.046850
v -0.375000 0.500000 0.046850
v -0.375000 -0.500000 0.046850
v -0.375000 0.250000 0.046850
v -0.375000 -0.250000 0.046850
v -0.375000 -0.375000 0.046850
v 0.000000 0.375000 0.046850
v -0.500000 0.375000 0.046850
v 0.500000 0.375000 0.046850
v -0.250000 0.375000 0.046850
v 0.250000 0.375000 0.046850
v -0.375000 0.375000 0.046850
v 0.375159 0.000000 0.046850
v 0.375159 0.500000 0.046850
v 0.375159 -0.500000 0.046850
v 0.375159 0.250000 0.046850
v 0.375159 -0.250000 0.046850
v 0.375159 -0.375000 0.046850
v 0.375159 0.375000 0.046850
v 0.000000 0.375000 -0.046850
v -0.500000 0.375000 -0.046850
v 0.500000 0.375000 -0.046850
v -0.250000 0.375000 -0.046850
v 0.250000 0.375000 -0.046850
v 0.375000 0.000000 -0.046850
v 0.375000 0.500000 -0.046850
v 0.375000 -0.500000 -0.046850
v 0.375000 0.250000 -0.046850
v 0.375000 -0.250000 -0.046850
v 0.375000 0.375000 -0.046850
v -0.375000 0.000000 -0.046850
v -0.375000 0.500000 -0.046850
v -0.375000 -0.500000 -0.046850
v -0.375000 0.250000 -0.046850
v -0.375000 -0.250000 -0.046850
v -0.375000 0.375000 -0.046850
v 0.000000 -0.375000 -0.046850
v -0.500000 -0.375000 -0.046850
v 0.500000 -0.375000 -0.046850
v -0.250000 -0.375000 -0.046850
v 0.250000 -0.375000 -0.046850
v 0.375000 -0.375000 -0.046850
v -0.375000 -0.375000 -0.046850
vn -0.0000 1.0000 -0.0000
vn -1.0000 -0.0000 -0.0000
vn -0.0000 -0.0000 -1.0000
vn -0.0000 -1.0000 -0.0000
vn -0.0000 -0.0000 1.0000
vn 1.0000 -0.0000 -0.0000
vn -1.0000 -0.0000 0.0017
vt 0.625000 0.500000
vt 0.375000 0.500000
vt 0.625000 0.750000
vt 0.375000 0.750000
vt 0.625000 0.250000
vt 0.875000 0.500000
vt 0.125000 0.500000
vt 0.375000 0.250000
vt 0.875000 0.750000
vt 0.625000 1.000000
vt 0.625000 0.000000
vt 0.125000 0.750000
vt 0.375000 1.000000
vt 0.375000 0.000000
vt 0.500000 0.500000
vt 0.500000 1.000000
vt 0.500000 0.000000
vt 0.500000 0.750000
vt 0.500000 0.250000
vt 0.125000 0.625000
vt 0.375000 0.125000
vt 0.625000 0.625000
vt 0.875000 0.625000
vt 0.625000 0.125000
vt 0.375000 0.625000
vt 0.625000 0.734375
vt 0.125000 0.734375
vt 0.375000 0.015625
vt 0.125000 0.687500
vt 0.375000 0.062500
vt 0.625000 0.687500
vt 0.500000 0.687500
vt 0.875000 0.687500
vt 0.625000 0.062500
vt 0.375000 0.687500
vt 0.500000 0.062500
vt 0.875000 0.562500
vt 0.625000 0.187500
vt 0.375000 0.562500
vt 0.500000 0.187500
vt 0.125000 0.562500
vt 0.375000 0.187500
vt 0.625000 0.562500
vt 0.500000 0.562500
vt 0.562500 0.000000
vt 0.562500 1.000000
vt 0.562500 0.500000
vt 0.562500 0.750000
vt 0.562500 0.250000
vt 0.562500 0.625000
vt 0.562500 0.125000
vt 0.562500 0.062500
vt 0.562500 0.687500
vt 0.562500 0.562500
vt 0.562500 0.187500
vt 0.437500 0.500000
vt 0.437500 0.750000
vt 0.437500 0.250000
vt 0.437500 1.000000
vt 0.437500 0.000000
vt 0.437500 0.125000
vt 0.437500 0.625000
vt 0.437500 0.062500
vt 0.437500 0.687500
vt 0.437500 0.562500
vt 0.437500 0.187500
vt 0.531250 0.500000
vt 0.531250 0.750000
vt 0.531250 0.250000
vt 0.531250 0.062500
vt 0.531250 0.687500
vt 0.531250 0.562500
vt 0.531250 0.187500
vt 0.531250 1.000000
vt 0.531250 0.000000
vt 0.125000 0.718750
vt 0.375000 0.031250
vt 0.625000 0.718750
vt 0.625000 0.031250
vt 0.875000 0.718750
vt 0.375000 0.718750
vt 0.875000 0.656250
vt 0.625000 0.093750
vt 0.375000 0.656250
vt 0.125000 0.656250
vt 0.375000 0.093750
vt 0.625000 0.656250
vt 0.562500 0.656250
vt 0.562500 0.093750
vt 0.437500 0.656250
vt 0.437500 0.093750
vt 0.125000 0.593750
vt 0.375000 0.156250
vt 0.625000 0.593750
vt 0.625000 0.156250
vt 0.875000 0.593750
vt 0.375000 0.593750
vt 0.562500 0.156250
vt 0.562500 0.593750
vt 0.437500 0.156250
vt 0.437500 0.593750
vt 0.875000 0.531250
vt 0.625000 0.218750
vt 0.375000 0.531250
vt 0.125000 0.531250
vt 0.375000 0.218750
vt 0.625000 0.531250
vt 0.468750 0.000000
vt 0.468750 1.000000
vt 0.468750 0.500000
vt 0.468750 0.750000
vt 0.468750 0.250000
vt 0.468750 0.062500
vt 0.468750 0.687500
vt 0.468750 0.562500
vt 0.468750 0.187500
vt 0.406250 0.500000
vt 0.406250 0.750000
vt 0.406250 0.250000
vt 0.406250 1.000000
vt 0.406250 0.000000
vt 0.593750 0.000000
vt 0.593750 1.000000
vt 0.593750 0.500000
vt 0.593750 0.750000
vt 0.593750 0.250000
vt 0.500000 0.734375
vt 0.562500 0.734375
vt 0.437500 0.734375
vt 0.531250 0.734375
vt 0.625000 0.015625
vt 0.875000 0.734375
vt 0.375000 0.734375
vt 0.500000 0.015625
vt 0.562500 0.015625
vt 0.437500 0.015625
vt 0.531250 0.015625
vt 0.468750 0.015625
vt 0.468750 0.734375
vt 0.406250 0.015625
vt 0.406250 0.734375
vt 0.593750 0.015625
vt 0.593750 0.734375
vt 0.610490 0.000000
vt 0.610490 1.000000
vt 0.610490 0.015625
vt 0.610490 0.734375
vt 0.610490 0.500000
vt 0.610490 0.750000
vt 0.610490 0.250000
vt 0.610490 0.625000
vt 0.610490 0.125000
vt 0.610490 0.062500
vt 0.610490 0.687500
vt 0.610490 0.562500
vt 0.610490 0.187500
vt 0.610490 0.031250
vt 0.610490 0.718750
vt 0.610490 0.656250
vt 0.610490 0.093750
vt 0.610490 0.156250
vt 0.610490 0.593750
vt 0.610490 0.531250
vt 0.610490 0.218750
vt 0.875000 0.515625
vt 0.625000 0.234375
vt 0.375000 0.515625
vt 0.500000 0.234375
vt 0.562500 0.234375
vt 0.437500 0.234375
vt 0.531250 0.234375
vt 0.125000 0.515625
vt 0.375000 0.234375
vt 0.625000 0.515625
vt 0.500000 0.515625
vt 0.562500 0.515625
vt 0.437500 0.515625
vt 0.531250 0.515625
vt 0.468750 0.515625
vt 0.468750 0.234375
vt 0.406250 0.515625
vt 0.406250 0.234375
vt 0.593750 0.515625
vt 0.593750 0.234375
vt 0.610490 0.515625
vt 0.610490 0.234375
vt 0.390625 0.500000
vt 0.390625 0.750000
vt 0.390625 0.250000
vt 0.390625 0.125000
vt 0.390625 0.625000
vt 0.390625 0.062500
vt 0.390625 0.687500
vt 0.390625 0.562500
vt 0.390625 0.187500
vt 0.390625 0.015625
vt 0.390625 0.718750
vt 0.390625 0.031250
vt 0.390625 0.093750
vt 0.390625 0.656250
vt 0.390625 0.734375
vt 0.390625 0.593750
vt 0.390625 0.156250
vt 0.390625 0.218750
vt 0.390625 0.531250
vt 0.390625 1.000000
vt 0.390625 0.000000
vt 0.390625 0.234375
vt 0.390625 0.515625
vt 0.453125 0.625000
vt 0.453125 0.687500
vt 0.453125 0.562500
vt 0.453125 0.656250
vt 0.453125 0.593750
vt 0.500000 0.671875
vt 0.562500 0.671875
vt 0.437500 0.671875
vt 0.531250 0.671875
vt 0.468750 0.671875
vt 0.453125 0.671875
vt 0.546875 0.625000
vt 0.546875 0.687500
vt 0.546875 0.562500
vt 0.546875 0.656250
vt 0.546875 0.593750
vt 0.546875 0.671875
vt 0.500000 0.578105
vt 0.562500 0.578105
vt 0.437500 0.578105
vt 0.531250 0.578105
vt 0.468750 0.578105
vt 0.453125 0.578105
vt 0.546875 0.578105
vt 0.546875 0.125000
vt 0.546875 0.062500
vt 0.546875 0.187500
vt 0.546875 0.093750
vt 0.546875 0.156250
vt 0.500000 0.171875
vt 0.562500 0.171875
vt 0.437500 0.171875
vt 0.531250 0.171875
vt 0.468750 0.171875
vt 0.546875 0.171875
vt 0.500000 0.078125
vt 0.562500 0.078125
vt 0.437500 0.078125
vt 0.531250 0.078125
vt 0.468750 0.078125
vt 0.546875 0.078125
vt 0.453125 0.125000
vt 0.453125 0.062500
vt 0.453125 0.187500
vt 0.453125 0.093750
vt 0.453125 0.156250
vt 0.453125 0.171875
vt 0.453125 0.078125
s 0
usemtl Material
f 17/26/1 103/132/1 7/9/1 3/3/1
f 119/149/2 3/3/2 7/10/2 115/145/2
f 154/186/3 135/166/3 5/5/3 120/150/3
f 18/27/4 104/133/4 4/4/4 8/12/4
f 117/147/5 17/26/5 3/3/5 119/149/5
f 120/150/6 5/5/6 1/1/6 118/148/6
f 86/112/6 12/19/6 9/15/6 84/110/6
f 110/139/5 99/127/5 11/18/5 85/111/5
f 148/180/3 137/168/3 12/19/3 86/112/3
f 85/111/2 11/18/2 10/16/2 83/109/2
f 174/207/3 94/121/3 111/140/3 164/196/3
f 83/108/3 10/17/3 105/134/3 109/138/3
f 132/162/5 72/94/5 14/22/5 121/151/5
f 71/92/4 74/97/4 16/25/4 13/20/4
f 130/160/3 63/83/3 15/24/3 122/152/3
f 72/94/1 73/96/1 15/23/1 14/22/1
f 127/157/3 61/79/3 22/34/3 123/153/3
f 95/122/3 115/144/3 116/146/3 113/142/3
f 186/219/5 182/215/5 21/32/5 88/114/5
f 129/159/5 66/87/5 20/31/5 124/154/5
f 65/85/4 64/84/4 23/35/4 19/29/4
f 66/87/1 63/82/1 22/33/1 20/31/1
f 82/107/1 79/102/1 25/37/1 29/43/1
f 81/105/4 80/104/4 26/39/4 28/41/4
f 133/163/5 82/107/5 29/43/5 125/155/5
f 84/110/5 9/15/5 143/175/5 147/179/5
f 210/243/3 206/239/3 27/40/3 90/116/3
f 131/161/3 73/95/3 25/38/3 126/156/3
f 211/244/3 207/240/3 40/55/3 203/236/3
f 118/148/5 1/1/5 142/174/5 153/185/5
f 193/226/5 183/216/5 38/53/5 189/222/5
f 204/237/3 68/89/3 36/51/3 201/234/3
f 192/225/5 76/99/5 35/50/5 188/221/5
f 53/69/6 34/49/6 32/47/6 51/67/6
f 102/130/5 100/128/5 33/48/5 52/68/5
f 140/171/3 138/169/3 34/49/3 53/69/3
f 52/68/2 33/48/2 31/46/2 58/74/2
f 6/7/4 2/2/4 136/167/4 141/172/4
f 1/1/1 5/6/1 135/165/1 142/174/1
f 41/56/5 84/110/5 147/179/5 145/177/5
f 92/118/2 42/57/2 44/59/2 94/120/2
f 150/182/3 139/170/3 43/58/3 93/119/3
f 112/141/5 101/129/5 42/57/5 92/118/5
f 93/119/6 43/58/6 41/56/6 91/117/6
f 11/18/2 52/68/2 58/74/2 10/16/2
f 137/168/3 140/171/3 53/69/3 12/19/3
f 99/127/5 102/130/5 52/68/5 11/18/5
f 12/19/6 53/69/6 51/67/6 9/15/6
f 115/144/3 7/11/3 103/131/3 116/146/3
f 182/215/5 185/218/5 55/71/5 21/32/5
f 206/239/3 209/242/3 57/73/3 27/40/3
f 155/187/5 91/117/5 149/181/5 176/209/5
f 32/47/5 96/124/5 151/183/5 144/176/5
f 116/146/3 103/131/3 61/79/3 127/157/3
f 124/154/5 20/31/5 60/78/5 128/158/5
f 19/29/4 23/35/4 62/81/4 59/76/4
f 20/31/1 22/33/1 61/80/1 60/78/1
f 44/60/3 83/108/3 109/138/3 107/136/3
f 97/125/2 119/149/2 115/145/2 95/123/2
f 217/250/3 213/246/3 68/89/3 204/237/3
f 188/221/5 35/50/5 67/88/5 191/224/5
f 14/22/1 15/23/1 63/82/1 66/87/1
f 13/20/4 16/25/4 64/84/4 65/85/4
f 121/151/5 14/22/5 66/87/5 129/159/5
f 123/153/3 22/34/3 63/83/3 130/160/3
f 31/45/3 95/122/3 113/142/3 106/135/3
f 152/184/3 154/186/3 120/150/3 98/126/3
f 200/233/5 195/228/5 76/99/5 192/225/5
f 201/234/3 36/51/3 75/98/3 205/238/3
f 122/152/3 15/24/3 73/95/3 131/161/3
f 29/43/1 25/37/1 73/96/1 72/94/1
f 28/41/4 26/39/4 74/97/4 71/92/4
f 125/155/5 29/43/5 72/94/5 132/162/5
f 60/78/1 61/80/1 103/132/1 17/26/1
f 153/185/5 142/174/5 82/107/5 133/163/5
f 141/172/4 136/167/4 80/104/4 81/105/4
f 142/174/1 135/165/1 79/102/1 82/107/1
f 59/76/4 62/81/4 104/133/4 18/27/4
f 126/156/3 25/38/3 79/103/3 134/164/3
f 128/158/5 60/78/5 17/26/5 117/147/5
f 153/185/2 154/186/2 152/184/2 138/169/2 140/171/2 137/168/2 148/180/2 139/170/2 150/182/2 175/208/2 176/209/2 149/181/2 145/177/2 147/179/2 143/175/2 146/178/2 144/176/2 151/183/2
f 176/209/1 175/208/1 172/204/1 163/195/1 171/203/1 158/190/1 167/199/1 160/192/1 166/198/1 164/196/1 169/201/1 165/197/1 161/193/1 168/200/1 159/191/1 170/202/1 162/194/1 173/205/1
f 114/143/5 117/147/5 119/149/5 97/125/5
f 223/256/3 210/243/3 90/116/3 220/253/3
f 98/126/6 120/150/6 118/148/6 96/124/6
f 187/220/5 186/219/5 88/114/5 178/211/5
f 217/250/4 204/237/4 201/234/4 205/238/4 211/244/4 200/233/4 192/225/4 188/221/4 191/224/4 193/226/4
f 42/57/2 85/111/2 83/109/2 44/59/2
f 139/170/3 148/180/3 86/112/3 43/58/3
f 101/129/5 110/139/5 85/111/5 42/57/5
f 43/58/6 86/112/6 84/110/6 41/56/6
f 157/189/6 93/119/6 91/117/6 155/187/6
f 169/201/5 112/141/5 92/118/5 156/188/5
f 175/208/3 150/182/3 93/119/3 157/189/3
f 156/188/2 92/118/2 94/120/2 174/206/2
f 10/17/3 58/75/3 108/137/3 105/134/3
f 94/121/3 44/60/3 107/136/3 111/140/3
f 58/75/3 31/45/3 106/135/3 108/137/3
f 34/49/6 98/126/6 96/124/6 32/47/6
f 100/128/5 114/143/5 97/125/5 33/48/5
f 138/169/3 152/184/3 98/126/3 34/49/3
f 33/48/2 97/125/2 95/123/2 31/46/2
f 51/67/5 32/47/5 144/176/5 146/178/5
f 91/117/5 41/56/5 145/177/5 149/181/5
f 9/15/5 51/67/5 146/178/5 143/175/5
f 96/124/5 118/148/5 153/185/5 151/183/5
f 134/164/3 79/103/3 135/166/3 154/186/3
f 71/93/3 171/203/3 163/195/3 28/42/3
f 80/104/5 173/205/5 162/194/5 26/39/5
f 64/84/5 168/200/5 161/193/5 23/35/5
f 59/77/3 166/198/3 160/192/3 19/30/3
f 74/97/5 170/202/5 159/191/5 16/25/5
f 65/86/3 167/199/3 158/190/3 13/21/3
f 4/4/2 156/188/2 174/206/2 8/13/2
f 141/173/3 175/208/3 157/189/3 6/8/3
f 104/133/5 169/201/5 156/188/5 4/4/5
f 6/8/6 157/189/6 155/187/6 2/2/6
f 23/35/5 161/193/5 165/197/5 62/81/5
f 18/28/3 164/196/3 166/198/3 59/77/3
f 19/30/3 160/192/3 167/199/3 65/86/3
f 16/25/5 159/191/5 168/200/5 64/84/5
f 26/39/5 162/194/5 170/202/5 74/97/5
f 13/21/3 158/190/3 171/203/3 71/93/3
f 28/42/3 163/195/3 172/204/3 81/106/3
f 136/167/5 176/209/5 173/205/5 80/104/5
f 81/106/3 172/204/3 175/208/3 141/173/3
f 2/2/5 155/187/5 176/209/5 136/167/5
f 62/81/5 165/197/5 169/201/5 104/133/5
f 8/14/3 174/207/3 164/196/3 18/28/3
f 78/101/5 181/214/5 177/210/5 46/62/5
f 184/217/5 187/220/5 178/211/5 48/64/5
f 46/62/5 177/210/5 180/213/5 69/90/5
f 196/229/5 199/232/5 181/214/5 78/101/5
f 69/90/5 180/213/5 187/220/5 184/217/5
f 191/224/5 67/88/5 183/216/5 193/226/5
f 185/218/5 193/226/5 189/222/5 55/71/5
f 56/72/5 190/223/5 200/233/5 197/230/5
f 49/65/5 179/212/5 199/232/5 196/229/5
f 179/212/5 89/115/5 198/231/5 199/232/5
f 89/115/5 30/44/5 194/227/5 198/231/5
f 190/223/5 39/54/5 195/228/5 200/233/5
f 30/44/5 56/72/5 197/230/5 194/227/5
f 217/250/6 193/226/6 185/218/6 182/215/6 186/219/6 187/220/6 224/257/6 216/249/6 212/245/6 215/248/6
f 211/244/7 209/242/7 206/239/7 210/243/7 223/256/7 199/232/7 198/231/7 194/227/7 197/230/7 200/233/7
f 181/214/1 199/232/1 223/256/1 222/255/1 218/251/1 221/254/1 224/257/1 187/220/1 180/213/1 177/210/1
f 209/242/3 211/244/3 203/236/3 57/73/3
f 208/241/4 50/66/4 49/65/4 196/229/4 78/101/4 46/62/4 69/90/4 184/217/4 48/64/4 47/63/4 214/247/4 70/91/4 45/61/4 77/100/4
f 24/36/2 87/113/2 219/252/2 47/63/2 48/64/2 178/211/2 88/114/2 21/32/2 55/71/2 189/222/2 38/53/2 37/52/2 202/235/2 54/70/2
f 30/44/6 89/115/6 179/212/6 49/65/6 50/66/6 220/253/6 90/116/6 27/40/6 57/73/6 203/236/6 40/55/6 39/54/6 190/223/6 56/72/6
f 205/238/3 75/98/3 207/240/3 211/244/3
f 207/240/1 75/98/1 36/51/1 68/89/1 213/246/1 37/52/1 38/53/1 183/216/1 67/88/1 35/50/1 76/99/1 195/228/1 39/54/1 40/55/1
f 54/70/3 202/235/3 217/250/3 215/248/3
f 219/252/3 87/113/3 216/249/3 224/257/3
f 87/113/3 24/36/3 212/245/3 216/249/3
f 202/235/3 37/52/3 213/246/3 217/250/3
f 24/36/3 54/70/3 215/248/3 212/245/3
f 47/63/3 219/252/3 224/257/3 214/247/3
f 77/100/3 222/255/3 223/256/3 208/241/3
f 70/91/3 221/254/3 218/251/3 45/61/3
f 208/241/3 223/256/3 220/253/3 50/66/3
f 214/247/3 224/257/3 221/254/3 70/91/3
f 45/61/3 218/251/3 222/255/3 77/100/3
f 154/186/4 153/185/4 133/163/4 125/155/4 132/162/4 121/151/4 129/159/4 124/154/4 128/158/4 117/147/4 116/146/4 127/157/4 123/153/4 130/160/4 122/152/4 131/161/4 126/156/4 134/164/4
f 111/140/6 107/136/6 109/138/6 105/134/6 108/137/6 106/135/6 113/142/6 116/146/6 117/147/6 114/143/6 100/128/6 102/130/6 99/127/6 110/139/6 101/129/6 112/141/6 169/201/6 164/196/6
