# Blender v2.92.0 OBJ File: ''
# www.blender.org
mtllib Force.mtl
o テキスト
v 2.875000 0.208333 0.100000
v 3.399225 0.208333 0.100000
v 3.251938 0.062015 0.100000
v 3.251938 -0.000000 0.100000
v 2.674419 -0.000000 0.100000
v 2.674419 0.872093 0.100000
v 3.399225 0.872093 0.100000
v 3.251938 0.732558 0.100000
v 3.251938 0.670543 0.100000
v 2.875000 0.670543 0.100000
v 2.875000 0.586240 0.100000
v 3.399225 0.586240 0.100000
v 3.251938 0.439922 0.100000
v 3.251938 0.377907 0.100000
v 2.875000 0.377907 0.100000
v 2.583333 0.724806 0.100000
v 2.583333 0.586240 0.100000
v 2.437016 0.586240 0.100000
v 2.352713 0.670543 0.100000
v 2.236434 0.670543 0.100000
v 2.206395 0.639535 0.100000
v 2.206395 0.231589 0.100000
v 2.236434 0.208333 0.100000
v 2.352713 0.208333 0.100000
v 2.437016 0.292636 0.100000
v 2.583333 0.292636 0.100000
v 2.583333 0.146318 0.100000
v 2.437016 -0.000000 0.100000
v 2.152132 -0.000000 0.100000
v 2.005814 0.146318 0.100000
v 2.005814 0.724806 0.100000
v 2.152132 0.872093 0.100000
v 2.730620 0.872093 0.100000
v 1.918605 0.736434 0.100000
v 1.918605 0.526163 0.100000
v 1.840116 0.457364 0.100000
v 1.918605 0.378876 0.100000
v 1.918605 -0.000000 0.100000
v 1.716085 -0.000000 0.100000
v 1.716085 0.293605 0.100000
v 1.655039 0.348837 0.100000
v 1.538760 0.348837 0.100000
v 1.538760 -0.000000 0.100000
v 1.337209 -0.000000 0.100000
v 1.337209 0.875969 0.100000
v 2.065892 0.875969 0.100000
v 1.686047 0.673450 0.100000
v 1.538760 0.673450 0.100000
v 1.538760 0.558140 0.100000
v 1.655039 0.558140 0.100000
v 1.731589 0.626938 0.100000
v 1.251938 0.735465 0.100000
v 1.251938 0.143411 0.100000
v 1.103682 -0.003876 0.100000
v 0.815892 -0.003876 0.100000
v 0.668605 0.143411 0.100000
v 0.668605 0.727713 0.100000
v 0.815892 0.875969 0.100000
v 1.400194 0.875969 0.100000
v 1.018411 0.672481 0.100000
v 0.902132 0.672481 0.100000
v 0.871124 0.641473 0.100000
v 0.871124 0.229651 0.100000
v 0.902132 0.206395 0.100000
v 1.018411 0.206395 0.100000
v 1.049419 0.229651 0.100000
v 1.049419 0.641473 0.100000
v 0.577519 0.439922 0.100000
v 0.577519 0.377907 0.100000
v 0.200581 0.377907 0.100000
v 0.200581 -0.000000 0.100000
v 0.000000 -0.000000 0.100000
v 0.000000 0.872093 0.100000
v 0.724806 0.872093 0.100000
v 0.577519 0.732558 0.100000
v 0.577519 0.670543 0.100000
v 0.200581 0.670543 0.100000
v 0.200581 0.586240 0.100000
v 0.724806 0.586240 0.100000
v 2.875000 0.208333 -0.100000
v 3.399225 0.208333 -0.100000
v 3.251938 0.062016 -0.100000
v 3.251938 0.000000 -0.100000
v 2.674419 0.000000 -0.100000
v 2.674419 0.872093 -0.100000
v 3.399225 0.872093 -0.100000
v 3.251938 0.732558 -0.100000
v 3.251938 0.670543 -0.100000
v 2.875000 0.670543 -0.100000
v 2.875000 0.586240 -0.100000
v 3.399225 0.586240 -0.100000
v 3.251938 0.439922 -0.100000
v 3.251938 0.377907 -0.100000
v 2.875000 0.377907 -0.100000
v 2.583333 0.724806 -0.100000
v 2.583333 0.586240 -0.100000
v 2.437016 0.586240 -0.100000
v 2.352713 0.670543 -0.100000
v 2.236434 0.670543 -0.100000
v 2.206395 0.639535 -0.100000
v 2.206395 0.231589 -0.100000
v 2.236434 0.208333 -0.100000
v 2.352713 0.208333 -0.100000
v 2.437016 0.292636 -0.100000
v 2.583333 0.292636 -0.100000
v 2.583333 0.146318 -0.100000
v 2.437016 0.000000 -0.100000
v 2.152132 0.000000 -0.100000
v 2.005814 0.146318 -0.100000
v 2.005814 0.724806 -0.100000
v 2.152132 0.872093 -0.100000
v 2.730620 0.872093 -0.100000
v 1.918605 0.736434 -0.100000
v 1.918605 0.526163 -0.100000
v 1.840116 0.457364 -0.100000
v 1.918605 0.378876 -0.100000
v 1.918605 0.000000 -0.100000
v 1.716085 0.000000 -0.100000
v 1.716085 0.293605 -0.100000
v 1.655039 0.348837 -0.100000
v 1.538760 0.348837 -0.100000
v 1.538760 0.000000 -0.100000
v 1.337209 0.000000 -0.100000
v 1.337209 0.875969 -0.100000
v 2.065892 0.875969 -0.100000
v 1.686047 0.673450 -0.100000
v 1.538760 0.673450 -0.100000
v 1.538760 0.558140 -0.100000
v 1.655039 0.558140 -0.100000
v 1.731589 0.626938 -0.100000
v 1.251938 0.735465 -0.100000
v 1.251938 0.143411 -0.100000
v 1.103682 -0.003876 -0.100000
v 0.815892 -0.003876 -0.100000
v 0.668605 0.143411 -0.100000
v 0.668605 0.727713 -0.100000
v 0.815892 0.875969 -0.100000
v 1.400194 0.875969 -0.100000
v 1.018411 0.672481 -0.100000
v 0.902132 0.672481 -0.100000
v 0.871124 0.641473 -0.100000
v 0.871124 0.229651 -0.100000
v 0.902132 0.206395 -0.100000
v 1.018411 0.206395 -0.100000
v 1.049419 0.229651 -0.100000
v 1.049419 0.641473 -0.100000
v 0.577519 0.439922 -0.100000
v 0.577519 0.377907 -0.100000
v 0.200581 0.377907 -0.100000
v 0.200581 0.000000 -0.100000
v 0.000000 0.000000 -0.100000
v 0.000000 0.872093 -0.100000
v 0.724806 0.872093 -0.100000
v 0.577519 0.732558 -0.100000
v 0.577519 0.670543 -0.100000
v 0.200581 0.670543 -0.100000
v 0.200581 0.586240 -0.100000
v 0.724806 0.586240 -0.100000
v 0.577519 0.439922 -0.100000
v 0.577519 0.439922 0.100000
v 0.577519 0.377907 -0.100000
v 0.577519 0.377907 0.100000
v 0.200581 0.377907 -0.100000
v 0.200581 0.377907 0.100000
v 0.200581 0.000000 -0.100000
v 0.200581 -0.000000 0.100000
v 0.000000 0.000000 -0.100000
v 0.000000 -0.000000 0.100000
v 0.000000 0.872093 -0.100000
v 0.000000 0.872093 0.100000
v 0.724806 0.872093 -0.100000
v 0.724806 0.872093 0.100000
v 0.577519 0.732558 -0.100000
v 0.577519 0.732558 0.100000
v 0.577519 0.670543 -0.100000
v 0.577519 0.670543 0.100000
v 0.200581 0.670543 -0.100000
v 0.200581 0.670543 0.100000
v 0.200581 0.586240 -0.100000
v 0.200581 0.586240 0.100000
v 0.724806 0.586240 -0.100000
v 0.724806 0.586240 0.100000
v 1.251938 0.735465 -0.100000
v 1.251938 0.735465 0.100000
v 1.251938 0.143411 -0.100000
v 1.251938 0.143411 0.100000
v 1.103682 -0.003876 -0.100000
v 1.103682 -0.003876 0.100000
v 0.815892 -0.003876 -0.100000
v 0.815892 -0.003876 0.100000
v 0.668605 0.143411 -0.100000
v 0.668605 0.143411 0.100000
v 0.668605 0.727713 -0.100000
v 0.668605 0.727713 0.100000
v 0.815892 0.875969 -0.100000
v 0.815892 0.875969 0.100000
v 1.400194 0.875969 -0.100000
v 1.400194 0.875969 0.100000
v 1.018411 0.672481 -0.100000
v 1.018411 0.672481 0.100000
v 0.902132 0.672481 -0.100000
v 0.902132 0.672481 0.100000
v 0.871124 0.641473 -0.100000
v 0.871124 0.641473 0.100000
v 0.871124 0.229651 -0.100000
v 0.871124 0.229651 0.100000
v 0.902132 0.206395 -0.100000
v 0.902132 0.206395 0.100000
v 1.018411 0.206395 -0.100000
v 1.018411 0.206395 0.100000
v 1.049419 0.229651 -0.100000
v 1.049419 0.229651 0.100000
v 1.049419 0.641473 -0.100000
v 1.049419 0.641473 0.100000
v 1.918605 0.736434 -0.100000
v 1.918605 0.736434 0.100000
v 1.918605 0.526163 -0.100000
v 1.918605 0.526163 0.100000
v 1.840116 0.457364 -0.100000
v 1.840116 0.457364 0.100000
v 1.918605 0.378876 -0.100000
v 1.918605 0.378876 0.100000
v 1.918605 0.000000 -0.100000
v 1.918605 -0.000000 0.100000
v 1.716085 0.000000 -0.100000
v 1.716085 -0.000000 0.100000
v 1.716085 0.293605 -0.100000
v 1.716085 0.293605 0.100000
v 1.655039 0.348837 -0.100000
v 1.655039 0.348837 0.100000
v 1.538760 0.348837 -0.100000
v 1.538760 0.348837 0.100000
v 1.538760 0.000000 -0.100000
v 1.538760 -0.000000 0.100000
v 1.337209 0.000000 -0.100000
v 1.337209 -0.000000 0.100000
v 1.337209 0.875969 -0.100000
v 1.337209 0.875969 0.100000
v 2.065892 0.875969 -0.100000
v 2.065892 0.875969 0.100000
v 1.686047 0.673450 -0.100000
v 1.686047 0.673450 0.100000
v 1.538760 0.673450 -0.100000
v 1.538760 0.673450 0.100000
v 1.538760 0.558140 -0.100000
v 1.538760 0.558140 0.100000
v 1.655039 0.558140 -0.100000
v 1.655039 0.558140 0.100000
v 1.731589 0.626938 -0.100000
v 1.731589 0.626938 0.100000
v 2.583333 0.724806 -0.100000
v 2.583333 0.724806 0.100000
v 2.583333 0.586240 -0.100000
v 2.583333 0.586240 0.100000
v 2.437016 0.586240 -0.100000
v 2.437016 0.586240 0.100000
v 2.352713 0.670543 -0.100000
v 2.352713 0.670543 0.100000
v 2.236434 0.670543 -0.100000
v 2.236434 0.670543 0.100000
v 2.206395 0.639535 -0.100000
v 2.206395 0.639535 0.100000
v 2.206395 0.231589 -0.100000
v 2.206395 0.231589 0.100000
v 2.236434 0.208333 -0.100000
v 2.236434 0.208333 0.100000
v 2.352713 0.208333 -0.100000
v 2.352713 0.208333 0.100000
v 2.437016 0.292636 -0.100000
v 2.437016 0.292636 0.100000
v 2.583333 0.292636 -0.100000
v 2.583333 0.292636 0.100000
v 2.583333 0.146318 -0.100000
v 2.583333 0.146318 0.100000
v 2.437016 0.000000 -0.100000
v 2.437016 -0.000000 0.100000
v 2.152132 0.000000 -0.100000
v 2.152132 -0.000000 0.100000
v 2.005814 0.146318 -0.100000
v 2.005814 0.146318 0.100000
v 2.005814 0.724806 -0.100000
v 2.005814 0.724806 0.100000
v 2.152132 0.872093 -0.100000
v 2.152132 0.872093 0.100000
v 2.730620 0.872093 -0.100000
v 2.730620 0.872093 0.100000
v 2.875000 0.208333 -0.100000
v 2.875000 0.208333 0.100000
v 3.399225 0.208333 -0.100000
v 3.399225 0.208333 0.100000
v 3.251938 0.062016 -0.100000
v 3.251938 0.062015 0.100000
v 3.251938 0.000000 -0.100000
v 3.251938 -0.000000 0.100000
v 2.674419 0.000000 -0.100000
v 2.674419 -0.000000 0.100000
v 2.674419 0.872093 -0.100000
v 2.674419 0.872093 0.100000
v 3.399225 0.872093 -0.100000
v 3.399225 0.872093 0.100000
v 3.251938 0.732558 -0.100000
v 3.251938 0.732558 0.100000
v 3.251938 0.670543 -0.100000
v 3.251938 0.670543 0.100000
v 2.875000 0.670543 -0.100000
v 2.875000 0.670543 0.100000
v 2.875000 0.586240 -0.100000
v 2.875000 0.586240 0.100000
v 3.399225 0.586240 -0.100000
v 3.399225 0.586240 0.100000
v 3.251938 0.439922 -0.100000
v 3.251938 0.439922 0.100000
v 3.251938 0.377907 -0.100000
v 3.251938 0.377907 0.100000
v 2.875000 0.377907 -0.100000
v 2.875000 0.377907 0.100000
vt 0.285714 0.000000
vt 0.642857 0.000000
vt 0.357143 0.000000
vt 0.428571 0.000000
vt 0.500000 0.000000
vt 0.571429 0.000000
vt 0.714286 0.000000
vt 1.000000 0.000000
vt 0.785714 0.000000
vt 0.857143 0.000000
vt 0.928571 0.000000
vt 0.000000 0.000000
vt 0.071429 0.000000
vt 0.142857 0.000000
vt 0.214286 0.000000
vt 0.882353 0.000000
vt 1.000000 0.000000
vt 0.941176 0.000000
vt 0.000000 0.000000
vt 0.823529 0.000000
vt 0.294118 0.000000
vt 0.235294 0.000000
vt 0.176471 0.000000
vt 0.058824 0.000000
vt 0.117647 0.000000
vt 0.352941 0.000000
vt 0.470588 0.000000
vt 0.588235 0.000000
vt 0.529412 0.000000
vt 0.647059 0.000000
vt 0.411765 0.000000
vt 0.764706 0.000000
vt 0.705882 0.000000
vt 0.588235 0.000000
vt 0.823529 0.000000
vt 0.647059 0.000000
vt 0.705882 0.000000
vt 0.000000 0.000000
vt 0.764706 0.000000
vt 0.058824 0.000000
vt 0.882353 0.000000
vt 1.000000 0.000000
vt 0.941176 0.000000
vt 0.470588 0.000000
vt 0.117647 0.000000
vt 0.176471 0.000000
vt 0.411765 0.000000
vt 0.352941 0.000000
vt 0.235294 0.000000
vt 0.529412 0.000000
vt 0.294118 0.000000
vt 0.333333 0.000000
vt 0.466667 0.000000
vt 0.400000 0.000000
vt 0.000000 0.000000
vt 0.533333 0.000000
vt 1.000000 0.000000
vt 0.066667 0.000000
vt 0.266667 0.000000
vt 0.666667 0.000000
vt 0.600000 0.000000
vt 0.733333 0.000000
vt 0.933333 0.000000
vt 0.800000 0.000000
vt 0.866667 0.000000
vt 0.200000 0.000000
vt 0.133333 0.000000
vt 0.363636 0.000000
vt 0.818182 0.000000
vt 0.454545 0.000000
vt 0.545455 0.000000
vt 0.636364 0.000000
vt 0.727273 0.000000
vt 0.909091 0.000000
vt 0.181818 0.000000
vt 1.000000 0.000000
vt 0.000000 0.000000
vt 0.090909 0.000000
vt 0.272727 0.000000
vt 0.642857 0.000000
vt 0.285714 0.000000
vt 0.357143 0.000000
vt 0.428571 0.000000
vt 0.500000 0.000000
vt 0.571429 0.000000
vt 0.714286 0.000000
vt 1.000000 0.000000
vt 0.785714 0.000000
vt 0.857143 0.000000
vt 0.928571 0.000000
vt 0.000000 0.000000
vt 0.071429 0.000000
vt 0.142857 0.000000
vt 0.214286 0.000000
vt 1.000000 0.000000
vt 0.882353 0.000000
vt 0.941176 0.000000
vt 0.000000 0.000000
vt 0.294118 0.000000
vt 0.823529 0.000000
vt 0.235294 0.000000
vt 0.176471 0.000000
vt 0.058824 0.000000
vt 0.117647 0.000000
vt 0.352941 0.000000
vt 0.588235 0.000000
vt 0.470588 0.000000
vt 0.529412 0.000000
vt 0.647059 0.000000
vt 0.411765 0.000000
vt 0.764706 0.000000
vt 0.705882 0.000000
vt 0.823529 0.000000
vt 0.588235 0.000000
vt 0.647059 0.000000
vt 0.705882 0.000000
vt 0.000000 0.000000
vt 0.764706 0.000000
vt 0.058824 0.000000
vt 0.882353 0.000000
vt 1.000000 0.000000
vt 0.941176 0.000000
vt 0.470588 0.000000
vt 0.117647 0.000000
vt 0.176471 0.000000
vt 0.411765 0.000000
vt 0.352941 0.000000
vt 0.235294 0.000000
vt 0.529412 0.000000
vt 0.294118 0.000000
vt 0.466667 0.000000
vt 0.333333 0.000000
vt 0.400000 0.000000
vt 0.000000 0.000000
vt 0.533333 0.000000
vt 1.000000 0.000000
vt 0.066667 0.000000
vt 0.666667 0.000000
vt 0.266667 0.000000
vt 0.600000 0.000000
vt 0.733333 0.000000
vt 0.933333 0.000000
vt 0.800000 0.000000
vt 0.866667 0.000000
vt 0.200000 0.000000
vt 0.133333 0.000000
vt 0.818182 0.000000
vt 0.363636 0.000000
vt 0.454545 0.000000
vt 0.545455 0.000000
vt 0.636364 0.000000
vt 0.727273 0.000000
vt 0.909091 0.000000
vt 0.181818 0.000000
vt 1.000000 0.000000
vt 0.000000 0.000000
vt 0.090909 0.000000
vt 0.272727 0.000000
vt 0.000000 1.000000
vt 0.083333 1.000000
vt 0.083333 0.000000
vt 0.000000 0.000000
vt 0.166667 1.000000
vt 0.166667 0.000000
vt 0.250000 1.000000
vt 0.250000 0.000000
vt 0.333333 1.000000
vt 0.333333 0.000000
vt 0.416667 1.000000
vt 0.416667 0.000000
vt 0.500000 1.000000
vt 0.500000 0.000000
vt 0.583333 1.000000
vt 0.583333 0.000000
vt 0.666667 1.000000
vt 0.666667 0.000000
vt 0.750000 1.000000
vt 0.750000 0.000000
vt 0.833333 1.000000
vt 0.833333 0.000000
vt 0.916667 1.000000
vt 0.916667 0.000000
vt 1.000000 1.000000
vt 1.000000 0.000000
vt 0.000000 1.000000
vt 0.125000 1.000000
vt 0.125000 0.000000
vt 0.000000 0.000000
vt 0.250000 1.000000
vt 0.250000 0.000000
vt 0.375000 1.000000
vt 0.375000 0.000000
vt 0.500000 1.000000
vt 0.500000 0.000000
vt 0.625000 1.000000
vt 0.625000 0.000000
vt 0.750000 1.000000
vt 0.750000 0.000000
vt 0.875000 1.000000
vt 0.875000 0.000000
vt 1.000000 1.000000
vt 1.000000 0.000000
vt 0.000000 1.000000
vt 0.125000 1.000000
vt 0.125000 0.000000
vt 0.000000 0.000000
vt 0.250000 1.000000
vt 0.250000 0.000000
vt 0.375000 1.000000
vt 0.375000 0.000000
vt 0.500000 1.000000
vt 0.500000 0.000000
vt 0.625000 1.000000
vt 0.625000 0.000000
vt 0.750000 1.000000
vt 0.750000 0.000000
vt 0.875000 1.000000
vt 0.875000 0.000000
vt 1.000000 1.000000
vt 1.000000 0.000000
vt 0.000000 1.000000
vt 0.076923 1.000000
vt 0.076923 0.000000
vt 0.000000 0.000000
vt 0.153846 1.000000
vt 0.153846 0.000000
vt 0.230769 1.000000
vt 0.230769 0.000000
vt 0.307692 1.000000
vt 0.307692 0.000000
vt 0.384615 1.000000
vt 0.384615 0.000000
vt 0.461538 1.000000
vt 0.461538 0.000000
vt 0.538462 1.000000
vt 0.538462 0.000000
vt 0.615385 1.000000
vt 0.615385 0.000000
vt 0.692308 1.000000
vt 0.692308 0.000000
vt 0.769231 1.000000
vt 0.769231 0.000000
vt 0.846154 1.000000
vt 0.846154 0.000000
vt 0.923077 1.000000
vt 0.923077 0.000000
vt 1.000000 1.000000
vt 1.000000 0.000000
vt 0.000000 1.000000
vt 0.200000 1.000000
vt 0.200000 0.000000
vt 0.000000 0.000000
vt 0.400000 1.000000
vt 0.400000 0.000000
vt 0.600000 1.000000
vt 0.600000 0.000000
vt 0.800000 1.000000
vt 0.800000 0.000000
vt 1.000000 1.000000
vt 1.000000 0.000000
vt 0.000000 1.000000
vt 0.055556 1.000000
vt 0.055556 0.000000
vt 0.000000 0.000000
vt 0.111111 1.000000
vt 0.111111 0.000000
vt 0.166667 1.000000
vt 0.166667 0.000000
vt 0.222222 1.000000
vt 0.222222 0.000000
vt 0.277778 1.000000
vt 0.277778 0.000000
vt 0.333333 1.000000
vt 0.333333 0.000000
vt 0.388889 1.000000
vt 0.388889 0.000000
vt 0.444444 1.000000
vt 0.444444 0.000000
vt 0.500000 1.000000
vt 0.500000 0.000000
vt 0.555556 1.000000
vt 0.555556 0.000000
vt 0.611111 1.000000
vt 0.611111 0.000000
vt 0.666667 1.000000
vt 0.666667 0.000000
vt 0.722222 1.000000
vt 0.722222 0.000000
vt 0.777778 1.000000
vt 0.777778 0.000000
vt 0.833333 1.000000
vt 0.833333 0.000000
vt 0.888889 1.000000
vt 0.888889 0.000000
vt 0.944444 1.000000
vt 0.944444 0.000000
vt 1.000000 1.000000
vt 1.000000 0.000000
vt 0.000000 1.000000
vt 0.066667 1.000000
vt 0.066667 0.000000
vt 0.000000 0.000000
vt 0.133333 1.000000
vt 0.133333 0.000000
vt 0.200000 1.000000
vt 0.200000 0.000000
vt 0.266667 1.000000
vt 0.266667 0.000000
vt 0.333333 1.000000
vt 0.333333 0.000000
vt 0.400000 1.000000
vt 0.400000 0.000000
vt 0.466667 1.000000
vt 0.466667 0.000000
vt 0.533333 1.000000
vt 0.533333 0.000000
vt 0.600000 1.000000
vt 0.600000 0.000000
vt 0.666667 1.000000
vt 0.666667 0.000000
vt 0.733333 1.000000
vt 0.733333 0.000000
vt 0.800000 1.000000
vt 0.800000 0.000000
vt 0.866667 1.000000
vt 0.866667 0.000000
vt 0.933333 1.000000
vt 0.933333 0.000000
vt 1.000000 1.000000
vt 1.000000 0.000000
vn -0.0000 -0.0000 1.0000
vn 0.0000 0.0000 -1.0000
vn 0.9232 -0.3842 0.0000
vn 0.7071 -0.7071 0.0000
vn -0.7071 -0.7071 0.0000
vn -0.7071 0.7071 0.0000
vn 0.9290 0.3702 0.0000
vn 0.9186 -0.3951 0.0000
vn 0.7071 0.7071 0.0000
vn 0.9245 0.3811 0.0000
vn 0.9186 -0.3950 0.0000
vn 0.3811 -0.9245 0.0000
vn -0.3827 -0.9239 0.0000
vn -0.9239 -0.3827 0.0000
vn -0.9245 0.3811 0.0000
vn -0.3842 0.9232 0.0000
vn 0.9289 0.3703 0.0000
vn 0.3827 -0.9239 0.0000
vn 0.9239 -0.3827 0.0000
vn 0.8944 0.4472 0.0000
vn 0.3162 0.9487 0.0000
vn -0.3162 0.9487 0.0000
vn -0.8944 0.4472 0.0000
vn 0.9108 -0.4128 0.0000
vn 0.9995 -0.0328 0.0000
vn 0.9239 0.3827 0.0000
vn -0.9140 -0.4056 0.0000
vn -0.3595 -0.9331 0.0000
vn -0.3875 -0.9218 0.0000
vn -0.3579 0.9337 0.0000
vn -0.9995 0.0319 0.0000
vn 0.3900 -0.9208 0.0000
vn 0.9269 -0.3753 0.0000
vn 0.8978 0.4404 0.0000
vn 0.3235 0.9462 0.0000
vn -0.3827 0.9239 0.0000
usemtl None
s off
f 5/1/1 10/2/1 6/3/1
f 10/2/1 7/4/1 6/3/1
f 10/2/1 8/5/1 7/4/1
f 10/2/1 9/6/1 8/5/1
f 5/1/1 11/7/1 10/2/1
f 5/1/1 15/8/1 11/7/1
f 15/8/1 12/9/1 11/7/1
f 15/8/1 13/10/1 12/9/1
f 15/8/1 14/11/1 13/10/1
f 5/1/1 1/12/1 15/8/1
f 5/1/1 2/13/1 1/12/1
f 5/1/1 3/14/1 2/13/1
f 5/1/1 4/15/1 3/14/1
f 31/16/1 33/17/1 32/18/1
f 31/16/1 16/19/1 33/17/1
f 30/20/1 21/21/1 31/16/1
f 21/21/1 20/22/1 31/16/1
f 20/22/1 16/19/1 31/16/1
f 20/22/1 19/23/1 16/19/1
f 19/23/1 17/24/1 16/19/1
f 18/25/1 17/24/1 19/23/1
f 30/20/1 22/26/1 21/21/1
f 24/27/1 26/28/1 25/29/1
f 24/27/1 27/30/1 26/28/1
f 30/20/1 23/31/1 22/26/1
f 30/20/1 24/27/1 23/31/1
f 30/20/1 27/30/1 24/27/1
f 29/32/1 27/30/1 30/20/1
f 29/32/1 28/33/1 27/30/1
f 44/34/1 48/35/1 45/36/1
f 48/35/1 46/37/1 45/36/1
f 48/35/1 34/38/1 46/37/1
f 48/35/1 47/39/1 34/38/1
f 47/39/1 35/40/1 34/38/1
f 44/34/1 49/41/1 48/35/1
f 51/42/1 35/40/1 47/39/1
f 50/43/1 35/40/1 51/42/1
f 44/34/1 50/43/1 49/41/1
f 44/34/1 42/44/1 50/43/1
f 42/44/1 35/40/1 50/43/1
f 42/44/1 36/45/1 35/40/1
f 42/44/1 37/46/1 36/45/1
f 42/44/1 41/47/1 37/46/1
f 41/47/1 40/48/1 37/46/1
f 40/48/1 38/49/1 37/46/1
f 44/34/1 43/50/1 42/44/1
f 39/51/1 38/49/1 40/48/1
f 57/52/1 59/53/1 58/54/1
f 57/52/1 52/55/1 59/53/1
f 57/52/1 60/56/1 52/55/1
f 60/56/1 67/57/1 52/55/1
f 67/57/1 53/58/1 52/55/1
f 56/59/1 62/60/1 57/52/1
f 62/60/1 61/61/1 57/52/1
f 61/61/1 60/56/1 57/52/1
f 56/59/1 63/62/1 62/60/1
f 66/63/1 53/58/1 67/57/1
f 56/59/1 64/64/1 63/62/1
f 65/65/1 53/58/1 66/63/1
f 56/59/1 65/65/1 64/64/1
f 56/59/1 53/58/1 65/65/1
f 55/66/1 53/58/1 56/59/1
f 55/66/1 54/67/1 53/58/1
f 72/68/1 77/69/1 73/70/1
f 77/69/1 74/71/1 73/70/1
f 77/69/1 75/72/1 74/71/1
f 77/69/1 76/73/1 75/72/1
f 72/68/1 78/74/1 77/69/1
f 72/68/1 70/75/1 78/74/1
f 70/75/1 79/76/1 78/74/1
f 70/75/1 68/77/1 79/76/1
f 70/75/1 69/78/1 68/77/1
f 72/68/1 71/79/1 70/75/1
f 89/80/2 84/81/2 85/82/2
f 86/83/2 89/80/2 85/82/2
f 87/84/2 89/80/2 86/83/2
f 88/85/2 89/80/2 87/84/2
f 90/86/2 84/81/2 89/80/2
f 94/87/2 84/81/2 90/86/2
f 91/88/2 94/87/2 90/86/2
f 92/89/2 94/87/2 91/88/2
f 93/90/2 94/87/2 92/89/2
f 80/91/2 84/81/2 94/87/2
f 81/92/2 84/81/2 80/91/2
f 82/93/2 84/81/2 81/92/2
f 83/94/2 84/81/2 82/93/2
f 112/95/2 110/96/2 111/97/2
f 95/98/2 110/96/2 112/95/2
f 100/99/2 109/100/2 110/96/2
f 99/101/2 100/99/2 110/96/2
f 95/98/2 99/101/2 110/96/2
f 98/102/2 99/101/2 95/98/2
f 96/103/2 98/102/2 95/98/2
f 96/103/2 97/104/2 98/102/2
f 101/105/2 109/100/2 100/99/2
f 105/106/2 103/107/2 104/108/2
f 106/109/2 103/107/2 105/106/2
f 102/110/2 109/100/2 101/105/2
f 103/107/2 109/100/2 102/110/2
f 106/109/2 109/100/2 103/107/2
f 106/109/2 108/111/2 109/100/2
f 107/112/2 108/111/2 106/109/2
f 127/113/2 123/114/2 124/115/2
f 125/116/2 127/113/2 124/115/2
f 113/117/2 127/113/2 125/116/2
f 126/118/2 127/113/2 113/117/2
f 114/119/2 126/118/2 113/117/2
f 128/120/2 123/114/2 127/113/2
f 114/119/2 130/121/2 126/118/2
f 114/119/2 129/122/2 130/121/2
f 129/122/2 123/114/2 128/120/2
f 121/123/2 123/114/2 129/122/2
f 114/119/2 121/123/2 129/122/2
f 115/124/2 121/123/2 114/119/2
f 116/125/2 121/123/2 115/124/2
f 120/126/2 121/123/2 116/125/2
f 119/127/2 120/126/2 116/125/2
f 117/128/2 119/127/2 116/125/2
f 122/129/2 123/114/2 121/123/2
f 117/128/2 118/130/2 119/127/2
f 138/131/2 136/132/2 137/133/2
f 131/134/2 136/132/2 138/131/2
f 139/135/2 136/132/2 131/134/2
f 146/136/2 139/135/2 131/134/2
f 132/137/2 146/136/2 131/134/2
f 141/138/2 135/139/2 136/132/2
f 140/140/2 141/138/2 136/132/2
f 139/135/2 140/140/2 136/132/2
f 142/141/2 135/139/2 141/138/2
f 132/137/2 145/142/2 146/136/2
f 143/143/2 135/139/2 142/141/2
f 132/137/2 144/144/2 145/142/2
f 144/144/2 135/139/2 143/143/2
f 132/137/2 135/139/2 144/144/2
f 132/137/2 134/145/2 135/139/2
f 133/146/2 134/145/2 132/137/2
f 156/147/2 151/148/2 152/149/2
f 153/150/2 156/147/2 152/149/2
f 154/151/2 156/147/2 153/150/2
f 155/152/2 156/147/2 154/151/2
f 157/153/2 151/148/2 156/147/2
f 149/154/2 151/148/2 157/153/2
f 158/155/2 149/154/2 157/153/2
f 147/156/2 149/154/2 158/155/2
f 148/157/2 149/154/2 147/156/2
f 150/158/2 151/148/2 149/154/2
s 1
f 160/159/3 162/160/4 161/161/4 159/162/3
f 162/160/4 164/163/4 163/164/4 161/161/4
f 164/163/4 166/165/4 165/166/4 163/164/4
f 166/165/4 168/167/5 167/168/5 165/166/4
f 168/167/5 170/169/6 169/170/6 167/168/5
f 170/169/6 172/171/7 171/172/7 169/170/6
f 172/171/7 174/173/8 173/174/8 171/172/7
f 174/173/8 176/175/4 175/176/4 173/174/8
f 176/175/4 178/177/4 177/178/4 175/176/4
f 178/177/4 180/179/9 179/180/9 177/178/4
f 180/179/9 182/181/10 181/182/10 179/180/9
f 182/181/10 160/183/3 159/184/3 181/182/10
f 184/185/11 186/186/3 185/187/3 183/188/11
f 186/186/3 188/189/12 187/190/12 185/187/3
f 188/189/12 190/191/13 189/192/13 187/190/12
f 190/191/13 192/193/14 191/194/14 189/192/13
f 192/193/14 194/195/15 193/196/15 191/194/14
f 194/195/15 196/197/16 195/198/16 193/196/15
f 196/197/16 198/199/17 197/200/17 195/198/16
f 198/199/17 184/201/11 183/202/11 197/200/17
f 200/203/13 202/204/18 201/205/18 199/206/13
f 202/204/18 204/207/19 203/208/19 201/205/18
f 204/207/19 206/209/20 205/210/20 203/208/19
f 206/209/20 208/211/21 207/212/21 205/210/20
f 208/211/21 210/213/22 209/214/22 207/212/21
f 210/213/22 212/215/23 211/216/23 209/214/22
f 212/215/23 214/217/14 213/218/14 211/216/23
f 214/217/14 200/219/13 199/220/13 213/218/14
f 216/221/8 218/222/24 217/223/24 215/224/8
f 218/222/24 220/225/25 219/226/25 217/223/24
f 220/225/25 222/227/26 221/228/26 219/226/25
f 222/227/26 224/229/4 223/230/4 221/228/26
f 224/229/4 226/231/5 225/232/5 223/230/4
f 226/231/5 228/233/27 227/234/27 225/232/5
f 228/233/27 230/235/28 229/236/28 227/234/27
f 230/235/28 232/237/4 231/238/4 229/236/28
f 232/237/4 234/239/4 233/240/4 231/238/4
f 234/239/4 236/241/5 235/242/5 233/240/4
f 236/241/5 238/243/6 237/244/6 235/242/5
f 238/243/6 240/245/7 239/246/7 237/244/6
f 240/245/7 216/247/8 215/248/8 239/246/7
f 242/249/29 244/250/4 243/251/4 241/252/29
f 244/250/4 246/253/9 245/254/9 243/251/4
f 246/253/9 248/255/30 247/256/30 245/254/9
f 248/255/30 250/257/31 249/258/31 247/256/30
f 250/257/31 242/259/29 241/260/29 249/258/31
f 252/261/19 254/262/4 253/263/4 251/264/19
f 254/262/4 256/265/13 255/266/13 253/263/4
f 256/265/13 258/267/13 257/268/13 255/266/13
f 258/267/13 260/269/32 259/270/32 257/268/13
f 260/269/32 262/271/33 261/272/33 259/270/32
f 262/271/33 264/273/34 263/274/34 261/272/33
f 264/273/34 266/275/35 265/276/35 263/274/34
f 266/275/35 268/277/36 267/278/36 265/276/35
f 268/277/36 270/279/36 269/280/36 267/278/36
f 270/279/36 272/281/9 271/282/9 269/280/36
f 272/281/9 274/283/19 273/284/19 271/282/9
f 274/283/19 276/285/18 275/286/18 273/284/19
f 276/285/18 278/287/13 277/288/13 275/286/18
f 278/287/13 280/289/14 279/290/14 277/288/13
f 280/289/14 282/291/15 281/292/15 279/290/14
f 282/291/15 284/293/16 283/294/16 281/292/15
f 284/293/16 286/295/26 285/296/26 283/294/16
f 286/295/26 252/297/19 251/298/19 285/296/26
f 288/299/9 290/300/10 289/301/10 287/302/9
f 290/300/10 292/303/3 291/304/3 289/301/10
f 292/303/3 294/305/4 293/306/4 291/304/3
f 294/305/4 296/307/5 295/308/5 293/306/4
f 296/307/5 298/309/6 297/310/6 295/308/5
f 298/309/6 300/311/7 299/312/7 297/310/6
f 300/311/7 302/313/8 301/314/8 299/312/7
f 302/313/8 304/315/4 303/316/4 301/314/8
f 304/315/4 306/317/4 305/318/4 303/316/4
f 306/317/4 308/319/9 307/320/9 305/318/4
f 308/319/9 310/321/10 309/322/10 307/320/9
f 310/321/10 312/323/3 311/324/3 309/322/10
f 312/323/3 314/325/4 313/326/4 311/324/3
f 314/325/4 316/327/4 315/328/4 313/326/4
f 316/327/4 288/329/9 287/330/9 315/328/4
