# Blender 3.3.1
# www.blender.org
mtllib Enemy_1.mtl
o Cube
v 0.950997 -0.003119 0.202241
v 0.001899 -0.960361 0.151689
v -0.007378 0.945916 0.224709
v -0.956477 -0.011326 0.174158
v 0.956477 0.011326 -0.174158
v 0.007378 -0.945916 -0.224709
v -0.001899 0.960361 -0.151689
v -0.950997 0.003119 -0.202241
vn 0.7036 0.7096 0.0375
vn -0.7105 0.7035 0.0167
vn 0.0145 0.0383 -0.9992
vn -0.7036 -0.7096 -0.0375
vn -0.0145 -0.0383 0.9992
vn 0.7105 -0.7035 -0.0167
vt 0.625000 0.500000
vt 0.375000 0.500000
vt 0.625000 0.750000
vt 0.375000 0.750000
vt 0.875000 0.500000
vt 0.625000 0.250000
vt 0.125000 0.500000
vt 0.375000 0.250000
vt 0.875000 0.750000
vt 0.625000 1.000000
vt 0.625000 0.000000
vt 0.375000 1.000000
vt 0.375000 0.000000
vt 0.125000 0.750000
s 0
usemtl マテリアル.004
f 1/1/1 5/5/1 7/9/1 3/3/1
f 4/4/2 3/3/2 7/10/2 8/12/2
f 8/13/3 7/11/3 5/6/3 6/8/3
f 6/7/4 2/2/4 4/4/4 8/14/4
f 2/2/5 1/1/5 3/3/5 4/4/5
f 6/8/6 5/6/6 1/1/6 2/2/6
o 立方体.002
v 1.220028 -0.205842 -0.147794
v 1.220028 0.205842 -0.147794
v 3.220028 -0.205842 -0.147794
v 3.220028 0.205842 -0.147794
v 1.220028 -0.205842 0.147794
v 1.220028 0.205842 0.147794
v 3.220028 -0.205842 0.147794
v 3.220028 0.205842 0.147794
vn -0.0000 -0.0000 -1.0000
vn 1.0000 -0.0000 -0.0000
vn -0.0000 -0.0000 1.0000
vn -1.0000 -0.0000 -0.0000
vn -0.0000 -1.0000 -0.0000
vn -0.0000 1.0000 -0.0000
vt 0.375000 0.000000
vt 0.375000 1.000000
vt 0.125000 0.750000
vt 0.625000 0.000000
vt 0.625000 1.000000
vt 0.875000 0.750000
vt 0.375000 0.250000
vt 0.125000 0.500000
vt 0.625000 0.250000
vt 0.875000 0.500000
vt 0.375000 0.750000
vt 0.625000 0.750000
vt 0.375000 0.500000
vt 0.625000 0.500000
s 0
usemtl マテリアル.004
f 9/15/7 10/18/7 12/23/7 11/21/7
f 11/21/8 12/23/8 16/28/8 15/27/8
f 15/27/9 16/28/9 14/26/9 13/25/9
f 13/25/10 14/26/10 10/19/10 9/16/10
f 11/22/11 15/27/11 13/25/11 9/17/11
f 16/28/12 12/24/12 10/20/12 14/26/12
o 立方体.003
v -0.212125 3.195535 -0.147794
v 0.199558 3.195996 -0.147794
v -0.209885 1.195536 -0.147794
v 0.201798 1.195998 -0.147794
v -0.212125 3.195535 0.147794
v 0.199558 3.195996 0.147794
v -0.209885 1.195536 0.147794
v 0.201798 1.195998 0.147794
vn -0.0000 -0.0000 -1.0000
vn 0.0011 -1.0000 -0.0000
vn -0.0000 -0.0000 1.0000
vn -0.0011 1.0000 -0.0000
vn -1.0000 -0.0011 -0.0000
vn 1.0000 0.0011 -0.0000
vt 0.375000 0.000000
vt 0.375000 1.000000
vt 0.125000 0.750000
vt 0.625000 0.000000
vt 0.625000 1.000000
vt 0.875000 0.750000
vt 0.375000 0.250000
vt 0.125000 0.500000
vt 0.625000 0.250000
vt 0.875000 0.500000
vt 0.375000 0.750000
vt 0.625000 0.750000
vt 0.375000 0.500000
vt 0.625000 0.500000
s 0
usemtl マテリアル.004
f 17/29/13 18/32/13 20/37/13 19/35/13
f 19/35/14 20/37/14 24/42/14 23/41/14
f 23/41/15 24/42/15 22/40/15 21/39/15
f 21/39/16 22/40/16 18/33/16 17/30/16
f 19/36/17 23/41/17 21/39/17 17/31/17
f 24/42/18 20/38/18 18/34/18 22/40/18
o 立方体.004
v -0.212125 -1.251031 -0.147794
v 0.199558 -1.250570 -0.147794
v -0.209885 -3.251030 -0.147794
v 0.201798 -3.250569 -0.147794
v -0.212125 -1.251031 0.147794
v 0.199558 -1.250570 0.147794
v -0.209885 -3.251030 0.147794
v 0.201798 -3.250569 0.147794
vn -0.0000 -0.0000 -1.0000
vn 0.0011 -1.0000 -0.0000
vn -0.0000 -0.0000 1.0000
vn -0.0011 1.0000 -0.0000
vn -1.0000 -0.0011 -0.0000
vn 1.0000 0.0011 -0.0000
vt 0.375000 0.000000
vt 0.375000 1.000000
vt 0.125000 0.750000
vt 0.625000 0.000000
vt 0.625000 1.000000
vt 0.875000 0.750000
vt 0.375000 0.250000
vt 0.125000 0.500000
vt 0.625000 0.250000
vt 0.875000 0.500000
vt 0.375000 0.750000
vt 0.625000 0.750000
vt 0.375000 0.500000
vt 0.625000 0.500000
s 0
usemtl マテリアル.004
f 25/43/19 26/46/19 28/51/19 27/49/19
f 27/49/20 28/51/20 32/56/20 31/55/20
f 31/55/21 32/56/21 30/54/21 29/53/21
f 29/53/22 30/54/22 26/47/22 25/44/22
f 27/50/23 31/55/23 29/53/23 25/45/23
f 32/56/24 28/52/24 26/48/24 30/54/24
o 立方体.001
v -1.274624 0.176112 -0.185538
v -1.274626 -0.229232 -0.113566
v -3.274607 0.177556 -0.177468
v -3.274609 -0.227787 -0.105495
v -1.273412 0.227787 0.105495
v -1.273414 -0.177556 0.177468
v -3.273395 0.229232 0.113566
v -3.273397 -0.176112 0.185538
vn -0.0041 -0.1748 -0.9846
vn -1.0000 0.0007 0.0040
vn 0.0041 0.1748 0.9846
vn 1.0000 -0.0007 -0.0040
vn -0.0000 0.9846 -0.1748
vn -0.0000 -0.9846 0.1748
vt 0.375000 0.000000
vt 0.375000 1.000000
vt 0.125000 0.750000
vt 0.625000 0.000000
vt 0.625000 1.000000
vt 0.875000 0.750000
vt 0.375000 0.250000
vt 0.125000 0.500000
vt 0.625000 0.250000
vt 0.875000 0.500000
vt 0.375000 0.750000
vt 0.625000 0.750000
vt 0.375000 0.500000
vt 0.625000 0.500000
s 0
usemtl マテリアル.004
f 33/57/25 34/60/25 36/65/25 35/63/25
f 35/63/26 36/65/26 40/70/26 39/69/26
f 39/69/27 40/70/27 38/68/27 37/67/27
f 37/67/28 38/68/28 34/61/28 33/58/28
f 35/64/29 39/69/29 37/67/29 33/59/29
f 40/70/30 36/66/30 34/62/30 38/68/30
o Cube.001
v -0.447088 0.926182 0.120668
v -1.013372 0.355040 0.090506
v -1.302049 1.206856 0.118993
v -0.443819 0.934801 -0.103912
v -1.010103 0.363658 -0.134074
v -1.298779 1.215475 -0.105587
vn 0.3116 0.9493 0.0410
vn 0.0145 0.0383 -0.9992
vn -0.9470 -0.3201 -0.0261
vn -0.0145 -0.0383 0.9992
vn 0.7105 -0.7035 -0.0167
vt 0.625000 0.500000
vt 0.375000 0.500000
vt 0.625000 0.750000
vt 0.375000 0.750000
vt 0.875000 0.500000
vt 0.625000 0.250000
vt 0.125000 0.500000
vt 0.375000 0.250000
vt 0.875000 0.750000
vt 0.625000 0.000000
vt 0.125000 0.750000
s 0
usemtl マテリアル.004
f 41/71/31 44/75/31 46/79/31 43/73/31
f 46/80/32 44/76/32 45/78/32
f 45/77/33 42/72/33 43/74/33 46/81/33
f 42/72/34 41/71/34 43/74/34
f 45/78/35 44/76/35 41/71/35 42/72/35
o Cube.002
v 0.898532 0.378036 0.181568
v 0.351046 0.941527 0.006846
v 1.196824 1.225128 0.125032
v 0.938833 0.349213 -0.037671
v 0.391347 0.912703 -0.212393
v 1.237125 1.196304 -0.094207
vn 0.9263 -0.3121 0.2113
vn 0.1793 -0.1282 -0.9754
vn -0.2906 0.9403 -0.1770
vn -0.1793 0.1282 0.9754
vn -0.7107 -0.7024 -0.0383
vt 0.625000 0.500000
vt 0.375000 0.500000
vt 0.625000 0.750000
vt 0.375000 0.750000
vt 0.875000 0.500000
vt 0.625000 0.250000
vt 0.125000 0.500000
vt 0.375000 0.250000
vt 0.875000 0.750000
vt 0.625000 0.000000
vt 0.125000 0.750000
s 0
usemtl マテリアル.004
f 47/82/36 50/86/36 52/90/36 49/84/36
f 52/91/37 50/87/37 51/89/37
f 51/88/38 48/83/38 49/85/38 52/92/38
f 48/83/39 47/82/39 49/85/39
f 51/89/40 50/87/40 47/82/40 48/83/40
o Cube.003
v 0.407350 -0.979182 0.245321
v 0.966471 -0.447093 0.017164
v 1.230577 -1.304725 0.083900
v 0.351776 -1.013036 0.030179
v 0.910897 -0.480948 -0.197978
v 1.175003 -1.338579 -0.131243
vn -0.3193 -0.9200 0.2272
vn -0.2472 -0.1506 -0.9572
vn 0.9234 0.2626 -0.2799
vn 0.2472 0.1506 0.9572
vn -0.6755 0.7350 0.0588
vt 0.625000 0.500000
vt 0.375000 0.500000
vt 0.625000 0.750000
vt 0.375000 0.750000
vt 0.875000 0.500000
vt 0.625000 0.250000
vt 0.125000 0.500000
vt 0.375000 0.250000
vt 0.875000 0.750000
vt 0.625000 0.000000
vt 0.125000 0.750000
s 0
usemtl マテリアル.004
f 53/93/41 56/97/41 58/101/41 55/95/41
f 58/102/42 56/98/42 57/100/42
f 57/99/43 54/94/43 55/96/43 58/103/43
f 54/94/44 53/93/44 55/96/44
f 57/100/45 56/98/45 53/93/45 54/94/45
o Cube.004
v -0.998737 -0.469740 0.152613
v -0.483344 -1.061116 -0.027486
v -1.329635 -1.306543 0.154980
v -1.051515 -0.449486 -0.064931
v -0.536121 -1.040861 -0.245029
v -1.382413 -1.286289 -0.062563
vn -0.8998 0.3565 0.2515
vn -0.2348 0.0901 -0.9679
vn 0.2457 -0.9579 -0.1488
vn 0.2348 -0.0901 0.9679
vn 0.7313 0.6723 -0.1148
vt 0.625000 0.500000
vt 0.375000 0.500000
vt 0.625000 0.750000
vt 0.375000 0.750000
vt 0.875000 0.500000
vt 0.625000 0.250000
vt 0.125000 0.500000
vt 0.375000 0.250000
vt 0.875000 0.750000
vt 0.625000 0.000000
vt 0.125000 0.750000
s 0
usemtl マテリアル.004
f 59/104/46 62/108/46 64/112/46 61/106/46
f 64/113/47 62/109/47 63/111/47
f 63/110/48 60/105/48 61/107/48 64/114/48
f 60/105/49 59/104/49 61/107/49
f 63/111/50 62/109/50 59/104/50 60/105/50
